<svg width="80" height="80" viewBox="0 0 80 80" fill="none" xmlns="http://www.w3.org/2000/svg">
<circle cx="40" cy="40" r="40" fill="#007828" fill-opacity="0.1"/>
<path fill-rule="evenodd" clip-rule="evenodd" d="M59.997 39.9981C59.997 51.0422 51.044 59.9952 40 59.9952C28.9559 59.9952 20.0029 51.0422 20.0029 39.9981C20.0029 28.954 28.9559 20.001 40 20.001C51.044 20.001 59.997 28.954 59.997 39.9981ZM48.0594 33.9383C48.6451 34.524 48.6451 35.4736 48.0594 36.0593L38.0609 46.0578C37.4752 46.6435 36.5256 46.6435 35.9399 46.0578L31.9405 42.0584C31.3548 41.4727 31.3548 40.5231 31.9405 39.9374C32.5262 39.3517 33.4758 39.3517 34.0615 39.9374L37.0004 42.8763L41.4694 38.4073L45.9384 33.9383C46.5241 33.3526 47.4737 33.3526 48.0594 33.9383Z" fill="#007828"/>
</svg>
