<svg width="22" height="22" viewBox="0 0 22 22" fill="none" xmlns="http://www.w3.org/2000/svg">
<path fill-rule="evenodd" clip-rule="evenodd" d="M21.8337 11.0001C21.8337 16.9832 16.9834 21.8334 11.0003 21.8334C5.01724 21.8334 0.166992 16.9832 0.166992 11.0001C0.166992 5.017 5.01724 0.166748 11.0003 0.166748C16.9834 0.166748 21.8337 5.017 21.8337 11.0001ZM7.71742 7.7172C8.03472 7.3999 8.54917 7.3999 8.86647 7.7172L11.0003 9.85102L13.1341 7.71722C13.4514 7.39992 13.9658 7.39992 14.2831 7.71722C14.6004 8.03452 14.6004 8.54897 14.2831 8.86627L12.1493 11.0001L14.2831 13.1338C14.6004 13.4511 14.6004 13.9656 14.2831 14.2829C13.9658 14.6002 13.4514 14.6002 13.1341 14.2829L11.0003 12.1491L8.86649 14.2829C8.54919 14.6002 8.03475 14.6002 7.71744 14.2829C7.40014 13.9656 7.40014 13.4512 7.71744 13.1339L9.85124 11.0001L7.71742 8.86625C7.40012 8.54895 7.40012 8.0345 7.71742 7.7172Z" fill="#F44336"/>
</svg>
