<svg width="140" height="141" viewBox="0 0 140 141" fill="none" xmlns="http://www.w3.org/2000/svg">
<circle cx="70" cy="70.5" r="70" fill="url(#paint0_linear_5082_1548)"/>
<path d="M109.958 105.97H34.1855V56.0395L72.1456 29.9355L109.958 56.0395V105.97Z" fill="#1583D4"/>
<mask id="path-3-inside-1_5082_1548" fill="white">
<path d="M87.5756 17.003C90.2384 16.272 92.9899 17.8378 93.7211 20.5006L111.092 83.7606L51.7462 100.056L36.9894 46.3149L50.0241 27.3142L87.5756 17.003Z"/>
</mask>
<path d="M87.5756 17.003C90.2384 16.272 92.9899 17.8378 93.7211 20.5006L111.092 83.7606L51.7462 100.056L36.9894 46.3149L50.0241 27.3142L87.5756 17.003Z" fill="white"/>
<path d="M87.5756 17.003L87.3108 16.0387L87.3108 16.0387L87.5756 17.003ZM111.092 83.7606L111.356 84.7249L112.321 84.4601L112.056 83.4958L111.092 83.7606ZM51.7462 100.056L50.7819 100.321L51.0467 101.285L52.011 101.02L51.7462 100.056ZM36.9894 46.3149L36.1648 45.7492L35.9022 46.132L36.0251 46.5797L36.9894 46.3149ZM50.0241 27.3142L49.7593 26.3499L49.4065 26.4468L49.1995 26.7485L50.0241 27.3142ZM87.5756 17.003L87.8403 17.9673C89.9706 17.3825 92.1718 18.6352 92.7567 20.7654L93.7211 20.5006L94.6854 20.2358C93.8079 17.0404 90.5061 15.1615 87.3108 16.0387L87.5756 17.003ZM93.7211 20.5006L92.7567 20.7654L110.127 84.0254L111.092 83.7606L112.056 83.4958L94.6854 20.2358L93.7211 20.5006ZM111.092 83.7606L110.827 82.7963L51.4814 99.0919L51.7462 100.056L52.011 101.02L111.356 84.7249L111.092 83.7606ZM51.7462 100.056L52.7105 99.7914L37.9537 46.0501L36.9894 46.3149L36.0251 46.5797L50.7819 100.321L51.7462 100.056ZM36.9894 46.3149L37.8141 46.8806L50.8487 27.8799L50.0241 27.3142L49.1995 26.7485L36.1648 45.7492L36.9894 46.3149ZM50.0241 27.3142L50.2889 28.2785L87.8404 17.9673L87.5756 17.003L87.3108 16.0387L49.7593 26.3499L50.0241 27.3142Z" fill="#79EEFF" mask="url(#path-3-inside-1_5082_1548)"/>
<path opacity="0.3" d="M49.8099 27.5708L50.9414 45.559L36.9731 46.2513L49.8099 27.5708Z" fill="#1F324F"/>
<path d="M49.7844 27.4208L51.3612 42.3007L37.0213 46.2383L49.7844 27.4208Z" fill="url(#paint1_linear_5082_1548)"/>
<circle cx="72.0718" cy="52.146" r="12.5445" fill="#007828" fill-opacity="0.1"/>
<path fill-rule="evenodd" clip-rule="evenodd" d="M78.3429 52.1453C78.3429 55.6089 75.5352 58.4167 72.0716 58.4167C68.6081 58.4167 65.8003 55.6089 65.8003 52.1453C65.8003 48.6818 68.6081 45.874 72.0716 45.874C75.5352 45.874 78.3429 48.6818 78.3429 52.1453ZM74.5992 50.2449C74.7828 50.4286 74.7828 50.7264 74.5992 50.9101L71.4635 54.0458C71.2798 54.2294 70.982 54.2294 70.7983 54.0458L69.5441 52.7915C69.3604 52.6078 69.3604 52.31 69.5441 52.1263C69.7277 51.9426 70.0256 51.9426 70.2092 52.1263L71.1309 53.048L72.5325 51.6465L73.934 50.2449C74.1177 50.0612 74.4155 50.0612 74.5992 50.2449Z" fill="#007828"/>
<path d="M109.958 106.276H34.1855V56.3574L70.2095 79.2041L109.958 56.3574V106.276Z" fill="white" stroke="#79EEFF" stroke-width="1.12125" stroke-linecap="round" stroke-linejoin="round"/>
<path d="M34.1855 106.277L69.9248 72.1099C70.5987 71.4546 71.5017 71.0879 72.4418 71.0879C73.3818 71.0879 74.2848 71.4546 74.9588 72.1099L109.958 106.277H34.1855Z" fill="white" stroke="#79EEFF" stroke-width="1.12125" stroke-linecap="round" stroke-linejoin="round"/>
<path d="M108.556 39.6043C109.172 39.6043 109.672 39.1046 109.672 38.4882C109.672 37.8718 109.172 37.3721 108.556 37.3721C107.939 37.3721 107.439 37.8718 107.439 38.4882C107.439 39.1046 107.939 39.6043 108.556 39.6043Z" fill="#3091D9" fill-opacity="0.4"/>
<path d="M28.4556 97.5938C29.5601 97.5938 30.4556 96.6983 30.4556 95.5938C30.4556 94.4892 29.5601 93.5938 28.4556 93.5938C27.351 93.5938 26.4556 94.4892 26.4556 95.5938C26.4556 96.6983 27.351 97.5938 28.4556 97.5938Z" fill="#3091D9"/>
<path d="M118.595 57.1226C120.122 57.1226 121.359 55.8849 121.359 54.3582C121.359 52.8314 120.122 51.5938 118.595 51.5938C117.068 51.5938 115.831 52.8314 115.831 54.3582C115.831 55.8849 117.068 57.1226 118.595 57.1226Z" fill="#3091D9"/>
<defs>
<linearGradient id="paint0_linear_5082_1548" x1="-106.839" y1="-103.206" x2="131.349" y2="148.892" gradientUnits="userSpaceOnUse">
<stop stop-color="#1C97E2" stop-opacity="0.4"/>
<stop offset="1" stop-color="#1C97E2" stop-opacity="0"/>
</linearGradient>
<linearGradient id="paint1_linear_5082_1548" x1="49.2226" y1="44.003" x2="41.4349" y2="36.3353" gradientUnits="userSpaceOnUse">
<stop offset="0.02" stop-color="#004AAE"/>
<stop offset="1" stop-color="#24ACF0"/>
</linearGradient>
</defs>
</svg>
