<svg width="74" height="74" viewBox="0 0 74 74" fill="none" xmlns="http://www.w3.org/2000/svg">
<path d="M43.3414 9.13184C41.7069 6.21033 39.4546 4.60156 37.0002 4.60156C34.5458 4.60156 32.2935 6.21033 30.6585 9.13184L3.22854 58.1444C1.60263 61.0493 1.40851 63.8442 2.68106 66.015C3.96002 68.1964 6.51525 69.3982 9.8754 69.3982H64.125C67.4852 69.3982 70.0404 68.1964 71.3194 66.0144C72.5919 63.8442 72.3972 61.0493 70.7713 58.1444L43.3414 9.13184ZM36.9989 62.2596C34.7464 62.2596 32.9203 60.4328 32.9203 58.1797C32.9203 55.9265 34.7464 54.0997 36.9989 54.0997C39.2527 54.0997 41.0801 55.9265 41.0801 58.1797C41.0801 60.4328 39.2527 62.2596 36.9989 62.2596ZM41.5204 26.9803L39.9598 45.2672C39.8277 47.5071 38.4963 49.3398 37.0002 49.3398C35.5041 49.3398 34.1727 47.5071 34.0406 45.2672L32.48 26.9803C32.3479 24.7405 34.0764 22.9077 36.3202 22.9077H37.6802C39.924 22.9077 41.6525 24.7405 41.5204 26.9803Z" fill="#DB3535"/>
</svg>
